:SAMPLES-PER-SECOND 30
:FULLY-SPECIFIED
:DEGREES
276
root  7.98427 39.3195 7.67404 10.859 -83.9059 -11.3533
RightUpLeg  -16.2822 8.91301 -24.941
RightLeg  109.148 -0.24866 1.84745
RightFoot  -7.85567 -0.558445 16.5495
RightToes  -5.28226e-011 1.30204e-014 -6.03759e-014
Spine  15.0686 4.88604 9.35085
Spine1  -5.48117 6.10329 -6.44189
HEad  -30.3559 63.432 -30.1719
LeftShoulder1  0.995118 -3.44477 -6.63659
LeftArm  7.60297 33.3488 -5.79082
LeftForeArm  46.5365 7.3146 -13.8505
LeftHand  -0.335868 0.634927 8.14824
RightShoulder  0.0994005 -2.77086 6.08515
RightArm  -1.79838 15.3413 40.5115
RightForeArm  147.665 40.9599 169.755
RightHand  -0.440085 0.487288 -8.77674
LeftUpLeg  -9.14266 -8.42995 10.8301
LeftLeg  18.2267 -8.49175 -2.23009
LeftFoot  -9.57452 0.253445 -12.6801
LeftToes  -2.42178e-010 -1.66495e-011 -2.88221e-011
277
root  8.03425 39.2487 7.53682 4.60773 -84.9528 -5.19977
RightUpLeg  -17.1877 15.364 -26.9992
RightLeg  122.165 2.54542 -3.03445
RightFoot  -6.88836 -0.491343 11.5034
RightToes  -5.28226e-011 1.30204e-014 -6.03759e-014
Spine  14.6079 5.39536 8.91978
Spine1  -3.8277 6.54112 -8.1673
HEad  -35.4841 66.0015 -34.4075
LeftShoulder1  0.805513 -2.5332 -5.55713
LeftArm  6.98928 34.1454 -3.56192
LeftForeArm  48.4247 7.41816 -13.2925
LeftHand  -0.217672 1.46269 6.33239
RightShoulder  0.144281 -2.47215 6.45586
RightArm  0.304611 14.2768 40.5817
RightForeArm  150.884 44.561 168.746
RightHand  -0.376102 0.296739 -7.7563
LeftUpLeg  -9.29513 -8.54045 10.1736
LeftLeg  19.0768 -7.95884 -2.32875
LeftFoot  -9.65506 0.248371 -12.9218
LeftToes  -2.42178e-010 -1.66495e-011 -2.88221e-011
278
root  7.99064 39.2256 7.48853 -4.09473 -87.1712 3.38757
RightUpLeg  -19.3649 18.8084 -29.3674
RightLeg  123.855 7.59108 -10.036
RightFoot  -5.91985 -0.324685 5.90189
RightToes  -5.28226e-011 1.30204e-014 -6.03759e-014
Spine  14.7575 6.14477 8.9686
Spine1  -3.2453 7.43358 -10.0419
HEad  -39.1206 67.8667 -37.2403
LeftShoulder1  0.715229 -1.91326 -5.39463
LeftArm  7.26931 34.7373 -3.81454
LeftForeArm  47.3867 7.43887 -13.3415
LeftHand  -0.198829 1.42982 5.69213
RightShoulder  0.204739 -2.09502 7.05099
RightArm  4.49227 9.8093 40.6861
RightForeArm  155.129 47.5886 167.9
RightHand  -0.317284 0.445615 -6.37989
LeftUpLeg  -8.34866 -6.56047 9.33236
LeftLeg  18.9322 -7.48096 -1.72595
LeftFoot  -9.97509 0.214774 -12.9649
LeftToes  -2.42178e-010 -1.66495e-011 -2.88221e-011
279
root  7.72472 39.2913 7.66428 -6.96326 -88.4676 5.81342
RightUpLeg  -20.9069 17.6182 -30.2668
RightLeg  114.275 7.93383 -14.6627
RightFoot  -6.3333 -0.171875 3.079
RightToes  -5.28226e-011 1.30204e-014 -6.03759e-014
Spine  15.4757 5.92607 9.82482
Spine1  -4.5778 7.59925 -10.5645
HEad  -39.7903 67.987 -38.5775
LeftShoulder1  0.722581 -1.76446 -5.96493
LeftArm  8.30923 35.1031 -6.57536
LeftForeArm  45.7295 7.29086 -13.9558
LeftHand  -0.276199 0.726706 6.82312
RightShoulder  0.255359 -1.80759 7.6119
RightArm  10.3955 3.33884 40.9676
RightForeArm  160.368 51.2113 166.766
RightHand  -0.204809 0.382273 -4.16553
LeftUpLeg  -6.47913 -4.83662 8.84323
LeftLeg  17.821 -7.31787 -1.03071
LeftFoot  -10.1368 0.193464 -12.6008
LeftToes  -2.42178e-010 -1.66495e-011 -2.88221e-011
280
root  7.51033 39.3 7.73932 -15.6503 -89.0323 13.8612
RightUpLeg  -19.9575 14.4907 -30.0648
RightLeg  98.6255 2.54697 -10.6736
RightFoot  -7.76621 -0.315225 8.26574
RightToes  -5.28226e-011 1.30204e-014 -6.03759e-014
Spine  16.328 4.95735 10.0814
Spine1  -5.69122 6.80181 -10.4565
HEad  -41.718 67.3456 -40.6928
LeftShoulder1  0.749967 -1.67185 -6.84413
LeftArm  7.78406 34.9342 -12.3469
LeftForeArm  44.5757 7.07666 -14.4776
LeftHand  -0.368848 0.399333 8.63063
RightShoulder  0.32622 -1.42511 8.30251
RightArm  16.5081 -3.09984 41.6844
RightForeArm  165.577 57.7041 163.867
RightHand  -0.101083 0.359393 -2.11271
LeftUpLeg  -5.40887 -5.0494 8.76404
LeftLeg  18.1334 -7.10286 -1.03377
LeftFoot  -10.454 0.15927 -12.5074
LeftToes  -2.42178e-010 -1.66495e-011 -2.88221e-011
281
root  7.43403 39.1295 7.51281 -44.8718 -89.9577 42.6346
RightUpLeg  -18.0597 10.964 -29.3873
RightLeg  79.9884 0.0173785 -1.8107
RightFoot  -7.72218 -0.616766 17.654
RightToes  -5.28226e-011 1.30204e-014 -6.03759e-014
Spine  16.5452 4.10527 8.71266
Spine1  -5.42188 5.72555 -10.5257
HEad  -45.8863 67.4034 -43.2929
LeftShoulder1  0.822119 -1.67797 -8.37614
LeftArm  1.96692 33.4216 -20.0796
LeftForeArm  44.5383 7.33366 -13.8958
LeftHand  -0.370102 1.22527 10.3191
RightShoulder  0.411974 -1.00842 9.21643
RightArm  21.183 -8.67543 42.7505
RightForeArm  165.111 67.7695 155.404
RightHand  -0.0723874 0.763731 -1.45175
LeftUpLeg  -5.47617 -5.32864 8.81099
LeftLeg  20.1233 -6.83646 -1.33539
LeftFoot  -11.6176 0.0374821 -13.0148
LeftToes  -2.42178e-010 -1.66495e-011 -2.88221e-011
282
root  7.31154 38.9911 7.21841 -168.135 -88.1006 165.985
RightUpLeg  -16.0447 6.05839 -27.233
RightLeg  60.1564 3.01123 5.06933
RightFoot  -7.57958 -0.862606 24.421
RightToes  -5.28226e-011 1.30204e-014 -6.03759e-014
Spine  15.8592 3.45081 7.29429
Spine1  -5.22643 4.82788 -9.34396
HEad  -48.1208 68.5861 -44.9498
LeftShoulder1  1.07009 -2.31209 -11.1507
LeftArm  -5.69549 30.2177 -28.2442
LeftForeArm  43.4757 7.75211 -12.6578
LeftHand  -0.311192 2.5075 12.2701
RightShoulder  0.48077 -0.738029 10.1935
RightArm  24.3307 -12.9872 44.0562
RightForeArm  134.57 78.8909 119.143
RightHand  -0.122324 1.08602 -2.31841
LeftUpLeg  -5.10217 -4.13533 9.53693
LeftLeg  20.5334 -6.0859 -0.854221
LeftFoot  -12.6007 -0.0765443 -13.7638
LeftToes  -2.42178e-010 -1.66495e-011 -2.88221e-011
283
root  7.21808 38.896 6.73878 170.065 -86.2206 -171.554
RightUpLeg  -13.869 -0.222758 -23.1636
RightLeg  41.534 9.64221 8.81578
RightFoot  -7.06588 -1.20296 30.0017
RightToes  -5.28226e-011 1.30204e-014 -6.03759e-014
Spine  14.9352 3.04286 4.98493
Spine1  -5.99673 3.83372 -5.78013
HEad  -40.8703 65.9676 -39.5686
LeftShoulder1  1.5241 -3.60884 -14.5312
LeftArm  -8.59975 25.778 -36.7641
LeftForeArm  39.8706 7.17701 -12.9839
LeftHand  -0.358715 2.5634 14.3948
RightShoulder  0.555708 -0.483108 11.3108
RightArm  26.8903 -14.9856 45.618
RightForeArm  51.6454 72.7998 33.4833
RightHand  -0.309807 1.31831 -5.38536
LeftUpLeg  -4.87346 -2.58668 11.2039
LeftLeg  20.1088 -5.44601 -0.222896
LeftFoot  -12.8522 -0.118736 -14.728
LeftToes  -2.42178e-010 -1.66495e-011 -2.88221e-011
284
root  7.19615 38.8431 5.9434 172.561 -85.255 -173.058
RightUpLeg  -11.7738 -4.79156 -18.4915
RightLeg  27.2588 13.8675 7.62428
RightFoot  -4.93241 -1.80748 31.2353
RightToes  -5.28226e-011 1.30204e-014 -6.03759e-014
Spine  14.0287 2.38349 0.100526
Spine1  -7.36947 2.1439 -0.346259
HEad  -25.9453 51.1702 -25.1267
LeftShoulder1  1.95598 -4.78781 -16.9393
LeftArm  2.36545 20.7711 -45.9995
LeftForeArm  28.7343 -1.34389 -13.386
LeftHand  -0.625748 0.654512 15.4074
RightShoulder  0.680281 -0.0834556 12.9556
RightArm  31.4252 -14.7564 47.1392
RightForeArm  25.294 49.8629 10.5052
RightHand  -0.641703 1.27843 -11.3398
LeftUpLeg  -5.12843 -0.250993 12.6173
LeftLeg  19.3955 -8.11451 -0.521201
LeftFoot  -12.3557 -0.0682127 -15.9138
LeftToes  -2.42178e-010 -1.66495e-011 -2.88221e-011
285
root  7.19651 38.9399 5.03165 -172.548 -85.6152 173.465
RightUpLeg  -11.0269 -4.22801 -15.3434
RightLeg  20.1225 9.35415 3.54447
RightFoot  -3.98735 -1.67476 24.9632
RightToes  -5.28226e-011 1.30204e-014 -6.03759e-014
Spine  13.3944 0.865796 -5.88637
Spine1  -9.29472 -0.289393 5.29294
HEad  -17.0759 22.7578 -12.5621
LeftShoulder1  2.05975 -4.98773 -17.6416
LeftArm  29.9159 15.4258 -55.3872
LeftForeArm  6.78783 -23.0728 -7.55141
LeftHand  -0.942529 -2.2381 14.5654
RightShoulder  0.824342 0.288009 15.0182
RightArm  38.0309 -15.1372 47.2874
RightForeArm  8.41956 28.4551 6.79496
RightHand  -0.716829 -0.547666 -17.3806
LeftUpLeg  -4.79606 4.82415 12.9751
LeftLeg  15.18 -14.016 -0.680603
LeftFoot  -10.2793 0.233909 -17.7813
LeftToes  -2.42178e-010 -1.66495e-011 -2.88221e-011
286
root  7.23142 38.9781 4.21003 -146.112 -86.2681 148.847
RightUpLeg  -12.4327 -1.24256 -14.3087
RightLeg  20.0858 1.04 0.168077
RightFoot  -5.91846 -0.875615 17.4805
RightToes  -5.28226e-011 1.30204e-014 -6.03759e-014
Spine  13.7463 -1.1975 -10.4977
Spine1  -12.1071 -2.79518 9.03888
HEad  -16.0051 -12.4669 -1.77142
LeftShoulder1  1.83774 -4.23408 -17.0707
LeftArm  24.795 8.1781 -62.9173
LeftForeArm  20.6717 -41.8894 -8.45278
LeftHand  -1.0094 -4.66738 11.9076
RightShoulder  0.902365 0.429995 16.3317
RightArm  28.7674 -18.3163 44.238
RightForeArm  7.33992 11.7005 12.4649
RightHand  -0.29607 -3.73543 -19.8397
LeftUpLeg  -4.84141 8.46107 13.0891
LeftLeg  9.96704 -14.4951 -0.0742036
LeftFoot  -7.0292 0.823646 -20.5785
LeftToes  -2.42178e-010 -1.66495e-011 -2.88221e-011
287
root  7.36091 38.9147 3.57571 -126.866 -86.5064 130.769
RightUpLeg  -14.1969 -0.666798 -13.8834
RightLeg  22.0389 -2.29911 -1.22592
RightFoot  -7.80122 -0.486476 14.1623
RightToes  -5.28226e-011 1.30204e-014 -6.03759e-014
Spine  15.3986 -3.01894 -12.4454
Spine1  -14.7546 -4.75221 10.2373
HEad  -27.1288 -49.5347 16.4345
LeftShoulder1  1.56732 -3.56439 -15.3718
LeftArm  23.6579 -1.40009 -72.1606
LeftForeArm  35.1185 -62.0365 -18.4451
LeftHand  -0.773933 -5.64925 8.40526
RightShoulder  0.888935 0.461159 15.7534
RightArm  2.14972 -22.9006 38.1507
RightForeArm  28.7541 -3.49437 17.0537
RightHand  0.155793 -6.61008 -17.4886
LeftUpLeg  -8.02118 5.93154 14.1072
LeftLeg  14.7749 -5.7238 0.00263057
LeftFoot  -5.04016 1.29276 -22.738
LeftToes  -2.42178e-010 -1.66495e-011 -2.88221e-011
288
root  7.54156 38.9193 3.11634 -137.483 -86.3399 140.736
RightUpLeg  -14.2929 -1.3662 -12.5638
RightLeg  22.6179 -0.997951 -0.671254
RightFoot  -7.718 -0.478684 13.4281
RightToes  -5.28226e-011 1.30204e-014 -6.03759e-014
Spine  17.5416 -4.15145 -12.8147
Spine1  -15.1165 -6.10558 10.2741
HEad  -55.0041 -71.9584 50.5327
LeftShoulder1  1.36707 -3.63113 -12.0791
LeftArm  26.5511 -13.0102 -82.6116
LeftForeArm  60.2661 -76.9316 -46.068
LeftHand  -0.563468 -4.85858 6.70294
RightShoulder  0.849603 0.643887 13.627
RightArm  3.80124 -26.0123 32.2388
RightForeArm  34.2695 -5.86403 16.4335
RightHand  0.321738 -8.75828 -12.0054
LeftUpLeg  -13.4746 1.55249 16.4489
LeftLeg  33.8716 1.93681 1.49385
LeftFoot  -5.38718 1.30156 -24.1686
LeftToes  -2.42178e-010 -1.66495e-011 -2.88221e-011
289
root  7.63829 38.8069 2.94376 -172.367 -84.3511 173.574
RightUpLeg  -13.6858 -0.575871 -10.2812
RightLeg  23.8214 0.852428 0.19295
RightFoot  -7.61811 -0.460482 12.4822
RightToes  -5.28226e-011 1.30204e-014 -6.03759e-014
Spine  19.0931 -4.77402 -12.0388
Spine1  -13.3405 -6.9848 11.3179
HEad  -66.1568 -70.6513 64.6276
LeftShoulder1  1.10676 -3.70549 -7.77617
LeftArm  29.5211 -24.3617 -90.9033
LeftForeArm  125.229 -79.5499 -114.656
LeftHand  -0.49455 -3.24906 6.89011
RightShoulder  0.870093 1.15325 11.6012
RightArm  13.5623 -25.531 25.6157
RightForeArm  36.7826 -3.34359 17.2652
RightHand  0.291229 -9.79794 -8.5103
LeftUpLeg  -17.022 0.577865 19.5628
LeftLeg  59.9257 1.24421 2.57495
LeftFoot  -7.52689 0.85223 -23.5346
LeftToes  -2.42178e-010 -1.66495e-011 -2.88221e-011
290
root  7.61593 38.6514 2.8782 176.685 -79.6971 -177.296
RightUpLeg  -13.561 1.964 -8.8166
RightLeg  25.3989 1.83581 0.72325
RightFoot  -8.18376 -0.357823 10.9418
RightToes  -5.28226e-011 1.30204e-014 -6.03759e-014
Spine  19.3849 -4.83761 -12.1361
Spine1  -11.8285 -7.20034 12.309
HEad  -42.3431 -63.0093 40.4429
LeftShoulder1  0.814277 -2.9466 -4.7373
LeftArm  31.1481 -32.7535 -94.085
LeftForeArm  154.504 -73.5796 -145.373
LeftHand  -0.395941 -2.19687 6.24425
RightShoulder  0.959503 1.86677 10.675
RightArm  23.8916 -23.2819 18.0925
RightForeArm  32.2833 -0.959853 18.0036
RightHand  0.369616 -10.2701 -9.7248
LeftUpLeg  -17.417 0.633579 22.1004
LeftLeg  85.5142 -0.257837 0.882472
LeftFoot  -10.7787 0.159522 -19.4128
LeftToes  -2.42178e-010 -1.66495e-011 -2.88221e-011
